<?xml version="1.0" standalone="no"?>
<!DOCTYPE svg PUBLIC "-//W3C//DTD SVG 20010904//EN"
 "http://www.w3.org/TR/2001/REC-SVG-20010904/DTD/svg10.dtd">
<svg version="1.0" xmlns="http://www.w3.org/2000/svg"
 width="86.000000pt" height="86.000000pt" viewBox="0 0 86.000000 86.000000"
 preserveAspectRatio="xMidYMid meet">
<metadata>
Created by potrace 1.14, written by Peter Selinger 2001-2017
</metadata>
<g transform="translate(0.000000,86.000000) scale(0.100000,-0.100000)"
fill="#000000" stroke="none">
<path d="M0 430 l0 -430 430 0 430 0 0 430 0 430 -430 0 -430 0 0 -430z m170
75 l0 -45 40 0 40 0 0 45 c0 43 1 45 30 45 l30 0 0 -120 0 -120 -30 0 c-29 0
-30 1 -30 50 l0 50 -40 0 -40 0 0 -50 c0 -47 -2 -50 -25 -50 l-25 0 0 120 0
120 25 0 c23 0 25 -4 25 -45z m343 22 l29 -22 -21 -19 c-20 -18 -22 -18 -39
-3 -10 10 -29 17 -41 17 -39 0 -19 -31 33 -51 55 -21 66 -32 66 -71 0 -44 -32
-68 -90 -68 -41 0 -56 5 -76 25 -21 21 -23 29 -14 40 16 19 34 19 50 0 14 -17
65 -20 75 -6 7 12 -33 41 -56 41 -30 0 -69 39 -69 70 0 66 94 95 153 47z m221
2 c31 -25 32 -30 6 -47 -17 -10 -23 -10 -36 3 -9 8 -27 15 -40 15 -44 0 -23
-30 36 -53 53 -21 55 -23 58 -64 4 -52 -22 -73 -89 -73 -36 0 -52 6 -74 26
-28 25 -28 27 -10 40 24 18 30 17 45 -1 15 -17 66 -20 76 -4 8 13 -9 26 -55
38 -70 20 -92 73 -49 118 29 30 94 32 132 2z"/>
</g>
</svg>
